<svg width="201" height="46" viewBox="0 0 201 46" fill="none" xmlns="http://www.w3.org/2000/svg">
<path d="M0 5.36133L10.1627 5.30762C13.0032 13.8282 16.6208 22.1269 19.2614 30.7014C22.8424 22.3135 25.9671 13.7245 29.5292 5.32234L38.0415 5.33789C41.5165 13.3388 44.9322 22.9087 47.5226 31.2281C49.2174 28.2317 50.7067 25.0881 52.28 22.0212C55.1306 16.4389 58.0302 10.8797 60.9783 5.34723L69.6757 5.31135C76.1797 17.0029 82.7457 28.6609 89.373 40.2837C88.7012 40.9431 80.2718 40.6072 78.7413 40.603C76.1563 36.3853 73.9557 31.8295 71.6073 27.4707C69.4259 23.4209 67.024 19.4457 65.0009 15.3192C62.4279 20.0906 59.9862 24.945 57.5078 29.7662C55.6652 33.3536 53.7197 36.9244 52.0552 40.5947H42.0526C40.4832 34.5978 38.121 28.6195 36.0573 22.7677C35.1521 20.2026 34.1802 17.6707 33.5504 15.0185C29.951 23.4499 27.0908 32.1861 23.463 40.6072L13.7652 40.601C11.7374 36.1737 10.1735 31.3982 8.42001 26.8486L0 5.36133Z" fill="#386FDE"/>
<path d="M110.99 27.3295H114.959L117.754 30.9727L119.073 32.5919L123.525 38.4027H119.399L116.422 34.5244L115.403 33.1142L110.99 27.3295ZM124.387 22.6286C124.387 25.4839 123.865 27.9388 122.82 29.9933C121.776 32.0391 120.344 33.6147 118.524 34.7203C116.714 35.8172 114.655 36.3656 112.348 36.3656C110.032 36.3656 107.965 35.8172 106.145 34.7203C104.335 33.6147 102.907 32.0347 101.862 29.9802C100.818 27.9258 100.295 25.4752 100.295 22.6286C100.295 19.7732 100.818 17.3227 101.862 15.2769C102.907 13.2224 104.335 11.6468 106.145 10.5499C107.965 9.44431 110.032 8.89152 112.348 8.89152C114.655 8.89152 116.714 9.44431 118.524 10.5499C120.344 11.6468 121.776 13.2224 122.82 15.2769C123.865 17.3227 124.387 19.7732 124.387 22.6286ZM120.392 22.6286C120.392 20.4522 120.039 18.6198 119.334 17.1311C118.637 15.6338 117.68 14.5021 116.461 13.736C115.251 12.9613 113.88 12.5739 112.348 12.5739C110.807 12.5739 109.431 12.9613 108.221 13.736C107.011 14.5021 106.054 15.6338 105.349 17.1311C104.652 18.6198 104.304 20.4522 104.304 22.6286C104.304 24.8049 104.652 26.6417 105.349 28.1391C106.054 29.6277 107.011 30.7594 108.221 31.5342C109.431 32.3002 110.807 32.6833 112.348 32.6833C113.88 32.6833 115.251 32.3002 116.461 31.5342C117.68 30.7594 118.637 29.6277 119.334 28.1391C120.039 26.6417 120.392 24.8049 120.392 22.6286ZM133.453 36L127.551 15.9429H131.586L135.516 30.6723H135.712L139.655 15.9429H143.69L147.608 30.607H147.804L151.708 15.9429H155.743L149.854 36H145.871L141.797 21.5186H141.497L137.422 36H133.453ZM167.482 36.4048C165.506 36.4048 163.804 35.9826 162.376 35.1382C160.957 34.285 159.861 33.0881 159.086 31.5472C158.32 29.9977 157.937 28.1826 157.937 26.102C157.937 24.0475 158.32 22.2368 159.086 20.6699C159.861 19.1029 160.94 17.8798 162.324 17.0006C163.717 16.1213 165.345 15.6817 167.208 15.6817C168.34 15.6817 169.436 15.8689 170.498 16.2432C171.561 16.6175 172.514 17.2051 173.358 18.006C174.203 18.8069 174.869 19.8472 175.356 21.1269C175.844 22.3979 176.087 23.9431 176.087 25.7625V27.1467H160.143V24.2217H172.261C172.261 23.1944 172.052 22.2847 171.635 21.4925C171.217 20.6916 170.629 20.0605 169.872 19.5991C169.123 19.1377 168.244 18.907 167.234 18.907C166.137 18.907 165.18 19.1769 164.361 19.7166C163.552 20.2477 162.925 20.9441 162.481 21.8059C162.046 22.659 161.828 23.5862 161.828 24.5873V26.8724C161.828 28.2131 162.063 29.3535 162.533 30.2936C163.012 31.2338 163.678 31.952 164.531 32.4482C165.384 32.9357 166.381 33.1795 167.521 33.1795C168.261 33.1795 168.936 33.075 169.545 32.8661C170.155 32.6484 170.681 32.3263 171.125 31.8998C171.569 31.4732 171.909 30.9465 172.144 30.3198L175.839 30.9857C175.543 32.0739 175.012 33.0271 174.246 33.8454C173.489 34.655 172.536 35.2862 171.386 35.7388C170.246 36.1828 168.945 36.4048 167.482 36.4048ZM184.324 24.0911V36H180.419V15.9429H184.167V19.2074H184.415C184.876 18.1453 185.599 17.2922 186.583 16.648C187.575 16.0038 188.824 15.6817 190.33 15.6817C191.697 15.6817 192.894 15.969 193.921 16.5435C194.949 17.1094 195.745 17.9538 196.311 19.0768C196.877 20.1998 197.16 21.5883 197.16 23.2423V36H193.255V23.7124C193.255 22.2586 192.877 21.1225 192.119 20.3042C191.362 19.4772 190.322 19.0637 188.998 19.0637C188.093 19.0637 187.288 19.2596 186.583 19.6513C185.886 20.0431 185.334 20.6176 184.924 21.375C184.524 22.1237 184.324 23.029 184.324 24.0911Z" fill="black"/>
</svg>
