<svg width="194" height="42" viewBox="0 0 194 42" fill="none" xmlns="http://www.w3.org/2000/svg">
<path d="M40.6561 32.9432L35.5193 38.08L31.6353 34.2587C28.8164 35.6995 25.4962 36.4512 22.0508 36.4512C11.5265 36.4512 2.63106 29.1845 2.63106 18.2844C2.63106 7.38431 11.5265 0.117571 22.0508 0.117571C32.575 0.117571 41.4705 7.38431 41.4705 18.2844C41.4705 22.7948 39.967 26.7414 37.3986 29.7483L40.6561 32.9432ZM28.3152 20.6022L32.0739 24.4235C33.0762 22.7321 33.64 20.6649 33.64 18.2844C33.64 11.143 28.5658 6.82051 22.0508 6.82051C15.5358 6.82051 10.4616 11.143 10.4616 18.2844C10.4616 25.4259 15.5358 29.7483 22.0508 29.7483C23.6169 29.7483 25.0577 29.4977 26.4359 29.0592L23.241 25.8017L28.3152 20.6022ZM43.479 0.931947H51.8107L60.6436 28.8086H61.0821L68.5994 0.931947H78.0587L85.7639 28.8086H86.1398L95.1605 0.931947H103.367L90.9007 35.5742H80.1259L73.423 9.57685H73.0471L66.2189 35.5742H55.5694L43.479 0.931947Z" fill="#28282B"/>
<path d="M116.814 -0.000181894H148.262V7.07862H124.645V13.4683H145.881V20.5471H124.645V27.438H149.139V34.6421H116.814V-0.000181894ZM154.988 -0.000181894H162.38L183.115 23.3035V-0.000181894H190.883V34.6421H183.428L162.693 11.2758V34.6421H154.988V-0.000181894Z" fill="#28282B"/>
<circle cx="107.159" cy="19.392" r="4.65909" fill="#386FDE"/>
</svg>
