<svg width="104" height="21" viewBox="0 0 104 21" fill="none" xmlns="http://www.w3.org/2000/svg">
<path d="M21.8155 17.6137L19.0591 20.3701L16.9751 18.3196C15.4624 19.0927 13.6809 19.4961 11.8321 19.4961C6.18497 19.4961 1.41179 15.5969 1.41179 9.74806C1.41179 3.89923 6.18497 2.20962e-06 11.8321 2.20962e-06C17.4793 2.20962e-06 22.2525 3.89923 22.2525 9.74806C22.2525 12.1683 21.4457 14.2859 20.0676 15.8994L21.8155 17.6137ZM15.1935 10.9918L17.2104 13.0422C17.7482 12.1347 18.0507 11.0254 18.0507 9.74806C18.0507 5.91606 15.328 3.5967 11.8321 3.5967C8.33627 3.5967 5.61354 5.91606 5.61354 9.74806C5.61354 13.5801 8.33627 15.8994 11.8321 15.8994C12.6725 15.8994 13.4456 15.765 14.1851 15.5297L12.4708 13.7817L15.1935 10.9918ZM23.3302 0.436984H27.8009L32.5404 15.3952H32.7757L36.8094 0.436984H41.8851L46.0197 15.3952H46.2213L51.0617 0.436984H55.4652L48.776 19.0255H42.9944L39.3977 5.07572H39.196L35.5321 19.0255H29.8177L23.3302 0.436984Z" fill="#28282B"/>
<path d="M62.6807 0.436984H79.5549V4.23537H66.8824V7.66399H78.2776V11.4624H66.8824V15.1599H80.0255V19.0255H62.6807V0.436984ZM83.1642 0.436984H87.1307L98.2569 12.9414V0.436984H102.425V19.0255H98.425L87.2987 6.4875V19.0255H83.1642V0.436984Z" fill="#28282B"/>
<circle cx="57.5" cy="10.5255" r="2.5" fill="#386FDE"/>
</svg>
