<svg width="114" height="26" viewBox="0 0 114 26" fill="none" xmlns="http://www.w3.org/2000/svg">
<path d="M0 3.03036L5.74414 3C7.34962 7.81598 9.39439 12.5066 10.8869 17.353C12.9109 12.612 14.6771 7.75738 16.6904 3.00832L21.5017 3.01711C23.4659 7.53938 25.3965 12.9484 26.8606 17.6507C27.8185 15.9571 28.6603 14.1803 29.5495 12.4468C31.1608 9.29161 32.7997 6.14944 34.466 3.02239L39.3819 3.00211C43.0581 9.6104 46.7693 16.1997 50.5152 22.7691C50.1354 23.1418 45.371 22.9519 44.5059 22.9496C43.0448 20.5656 41.8011 17.9906 40.4737 15.527C39.2407 13.2379 37.8831 10.9911 36.7396 8.65869C35.2854 11.3556 33.9053 14.0994 32.5044 16.8244C31.4629 18.8521 30.3633 20.8703 29.4225 22.9449H23.7688C22.8818 19.5553 21.5466 16.1763 20.3802 12.8687C19.8686 11.4189 19.3192 9.9878 18.9633 8.48874C16.9288 13.2543 15.3122 18.1922 13.2617 22.9519L7.78035 22.9484C6.6342 20.4461 5.75023 17.7468 4.75913 15.1753L0 3.03036Z" fill="#386FDE"/>
<path d="M62.7334 16.0993H64.9771L66.5566 18.1585L67.302 19.0737L69.8188 22.358H67.4865L65.8037 20.166L65.228 19.3689L62.7334 16.0993ZM70.3059 13.4422C70.3059 15.0561 70.0107 16.4437 69.4202 17.6049C68.8298 18.7612 68.0204 19.6518 66.992 20.2767C65.9686 20.8967 64.8049 21.2067 63.501 21.2067C62.1921 21.2067 61.0235 20.8967 59.9952 20.2767C58.9717 19.6518 58.1648 18.7587 57.5743 17.5975C56.9839 16.4363 56.6887 15.0512 56.6887 13.4422C56.6887 11.8283 56.9839 10.4432 57.5743 9.28694C58.1648 8.12572 58.9717 7.23512 59.9952 6.61515C61.0235 5.99026 62.1921 5.67781 63.501 5.67781C64.8049 5.67781 65.9686 5.99026 66.992 6.61515C68.0204 7.23512 68.8298 8.12572 69.4202 9.28694C70.0107 10.4432 70.3059 11.8283 70.3059 13.4422ZM68.0474 13.4422C68.0474 12.2121 67.8482 11.1764 67.4496 10.335C67.056 9.48868 66.5147 8.84902 65.8259 8.41603C65.1419 7.97811 64.367 7.75915 63.501 7.75915C62.6301 7.75915 61.8526 7.97811 61.1687 8.41603C60.4848 8.84902 59.9435 9.48868 59.545 10.335C59.1513 11.1764 58.9545 12.2121 58.9545 13.4422C58.9545 14.6723 59.1513 15.7105 59.545 16.5569C59.9435 17.3983 60.4848 18.0379 61.1687 18.4758C61.8526 18.9088 62.6301 19.1253 63.501 19.1253C64.367 19.1253 65.1419 18.9088 65.8259 18.4758C66.5147 18.0379 67.056 17.3983 67.4496 16.5569C67.8482 15.7105 68.0474 14.6723 68.0474 13.4422ZM75.4299 21L72.0939 9.66335H74.3745L76.5961 17.9887H76.7068L78.9357 9.66335H81.2163L83.4305 17.9518H83.5412L85.748 9.66335H88.0287L84.7 21H82.4489L80.1461 12.8149H79.9764L77.6736 21H75.4299ZM94.6638 21.2288C93.5469 21.2288 92.585 20.9902 91.778 20.5129C90.976 20.0307 90.356 19.3541 89.9181 18.4832C89.4851 17.6074 89.2686 16.5815 89.2686 15.4055C89.2686 14.2443 89.4851 13.2208 89.9181 12.3351C90.356 11.4495 90.9661 10.7581 91.7485 10.2612C92.5358 9.76422 93.4559 9.51574 94.5088 9.51574C95.1485 9.51574 95.7685 9.62153 96.3688 9.83311C96.9691 10.0447 97.5078 10.3768 97.9851 10.8295C98.4624 11.2822 98.8388 11.8702 99.1144 12.5935C99.3899 13.3118 99.5277 14.1852 99.5277 15.2136V15.9959H90.5159V14.3427H97.3652C97.3652 13.7621 97.2471 13.2479 97.0109 12.8001C96.7747 12.3474 96.4426 11.9907 96.0145 11.7299C95.5913 11.4691 95.0944 11.3388 94.5236 11.3388C93.9036 11.3388 93.3624 11.4913 92.8999 11.7964C92.4423 12.0965 92.088 12.4901 91.8371 12.9773C91.591 13.4595 91.468 13.9835 91.468 14.5493V15.8409C91.468 16.5987 91.6009 17.2433 91.8666 17.7747C92.1372 18.3061 92.5136 18.712 92.9958 18.9925C93.478 19.268 94.0414 19.4058 94.686 19.4058C95.1042 19.4058 95.4856 19.3467 95.83 19.2286C96.1744 19.1056 96.4721 18.9236 96.723 18.6825C96.974 18.4414 97.1659 18.1437 97.2987 17.7894L99.3874 18.1658C99.2201 18.7809 98.92 19.3197 98.487 19.7822C98.0589 20.2398 97.5201 20.5965 96.8706 20.8524C96.2261 21.1033 95.4905 21.2288 94.6638 21.2288ZM104.183 14.2689V21H101.976V9.66335H104.094V11.5085H104.235C104.495 10.9082 104.904 10.426 105.46 10.0619C106.021 9.6978 106.727 9.51574 107.578 9.51574C108.351 9.51574 109.027 9.67811 109.608 10.0029C110.188 10.3227 110.639 10.8 110.958 11.4347C111.278 12.0694 111.438 12.8542 111.438 13.7891V21H109.231V14.0548C109.231 13.2331 109.017 12.591 108.589 12.1285C108.161 11.661 107.573 11.4273 106.825 11.4273C106.314 11.4273 105.858 11.538 105.46 11.7595C105.066 11.9809 104.754 12.3056 104.523 12.7337C104.296 13.1569 104.183 13.6686 104.183 14.2689Z" fill="black"/>
</svg>
